<?xml version="1.0" standalone="no"?>
<svg xmlns="http://www.w3.org/2000/svg"
     width="324pt"
     height="299pt"
     viewBox="0 0 324 299"
     preserveAspectRatio="xMidYMid meet">

  <defs>
    <linearGradient id="softRed" x1="0%" y1="0%" x2="100%" y2="100%">
      <stop offset="0%" stop-color="#016630"/>
      <stop offset="100%" stop-color="#00a63e"/>
    </linearGradient>
  </defs>

  <g transform="translate(0,299) scale(0.1,-0.1)"
     fill="url(#softRed)"
     stroke="none">

    <path d="M1072 2290 l-502 -249 2 -643 3 -643 60 -31
    c527 -272 947 -484 958 -484
    12 0 664 329 925 467 l102 54 0 640 0 640
    -506 249 c-279 138 -514 250 -523 250
    -9 0 -242 -113 -519 -250z
    m633 125 c91 -44 611 -302 745 -370 l54 -28
    -144 -73 c-80 -40 -148 -73 -151 -73
    -4 -1 -6 7 -5 16 0 10 -7 19 -19 21
    -16 2 -17 1 -5 -7 8 -6 10 -11 5 -11
    -6 0 -21 7 -33 16 -20 14 -22 14 -22 0
    0 -9 5 -16 12 -16 6 0 9 -2 6 -5
    -3 -3 -20 2 -39 10 -19 9 -24 14 -11 11
    30 -6 28 2 -5 16 -22 9 -24 12 -10 15
    9 3 17 9 17 14 0 6 -5 7 -10 4
    -6 -3 -13 1 -16 9 -3 9 -21 25 -40 36
    -27 17 -37 19 -55 10 -12 -7 -19 -8 -15 -2
    3 5 -1 13 -10 16 -8 3 -12 2 -9 -4
    3 -6 1 -10 -4 -10 -6 0 -11 4 -11 8
    0 12 -59 44 -70 37 -6 -3 -10 1 -10 9
    0 9 -7 16 -16 16 -9 0 -12 -5 -8 -12
    4 -7 3 -8 -5 -4 -13 8 -58 18 -81 17
    -69 -3 -111 -8 -119 -16 -4 -6 -11 -24 -14 -42
    -5 -26 -3 -33 14 -38 17 -6 18 -9 7 -23
    -11 -13 -10 -15 5 -9 9 3 17 2 17 -4
    0 -6 5 -7 10 -4 8 5 7 12 -2 23
    -7 10 3 5 22 -10 19 -14 34 -33 32 -42
    -2 -9 2 -16 9 -16 9 0 9 -3 0 -14
    -16 -19 -4 -42 30 -56 16 -7 29 -17 29 -22
    0 -6 8 -4 17 3 11 10 14 10 9 2
    -4 -8 -2 -13 6 -14 30 -3 35 -5 52 -21
    11 -11 15 -25 11 -38 -5 -15 -2 -20 12 -20
    10 -1 -52 -36 -137 -79 l-155 -79
    -447 226 c-247 125 -448 229 -448 233
    0 4 44 29 98 55 53 26 254 125 446 221
    192 95 351 171 355 169 3 -2 51 -25 106 -51z
    m-619 -681 c247 -124 455 -233 462 -242
    9 -12 12 -143 12 -584 0 -312 -4 -568 -9 -568
    -5 0 -96 45 -202 99 -107 55 -309 158 -449 230
    l-255 130 -5 581 c-3 319 -4 580 -4 580
    1 0 204 -102 450 -226z
    m941 115 c62 -24 113 -50 113 -57
    0 -7 -16 -82 -35 -166 -19 -85 -35 -163 -35 -173
    0 -10 27 -60 60 -112 l59 -93 -21 -52
    c-37 -93 -39 -95 -33 -26 l5 65
    -76 88 c-87 101 -82 73 -45 272
    31 163 35 149 -74 239
    -52 43 -95 80 -95 82
    0 2 15 -2 33 -9 17 -8 83 -33 144 -58z
    m-136 -64 c22 -19 35 -35 31 -35
    -5 0 -21 14 -38 31 -17 18 -36 28 -46 25
    -10 -2 -16 0 -12 5 10 16 26 10 65 -26z"/>

  </g>
</svg>